<?xml version="1.0" encoding="UTF-8"?>
<!DOCTYPE svg PUBLIC "-//W3C//DTD SVG 1.1//EN" "http://www.w3.org/Graphics/SVG/1.1/DTD/svg11.dtd">
<!-- Creator: CorelDRAW 2017 -->
<svg xmlns="http://www.w3.org/2000/svg" xml:space="preserve" width="2.54mm" height="2.54mm" version="1.1" style="shape-rendering:geometricPrecision; text-rendering:geometricPrecision; image-rendering:optimizeQuality; fill-rule:evenodd; clip-rule:evenodd"
viewBox="0 0 254 254"
 xmlns:xlink="http://www.w3.org/1999/xlink">
 <defs>
  <style type="text/css">
   <![CDATA[
    .fil0 {fill:#C9C9B5}
   ]]>
  </style>
 </defs>
 <g id="レイヤ_x0020_1">
  <metadata id="CorelCorpID_0Corel-Layer"/>
  <g id="_2418580994416">
   <path class="fil0" d="M162.99 112.88l-0.76 0.09 -0.76 0.16 -0.67 0.34 -0.67 0.42 -0.67 0.5 -0.67 0.67 -0.59 0.76 -0.5 0.84 -0.93 1.85 -0.67 2.18 -0.42 2.43 -0.17 2.52 0.17 2.6 0.42 2.44 0.67 2.1 0.93 1.93 0.5 0.84 0.59 0.75 0.67 0.59 0.67 0.59 0.67 0.42 0.67 0.25 0.76 0.25 0.76 0.08 0.83 -0.08 0.76 -0.25 0.67 -0.25 0.67 -0.42 0.67 -0.59 0.68 -0.59 0.5 -0.75 0.59 -0.84 0.92 -1.93 0.67 -2.1 0.42 -2.44 0.17 -2.6 -0.17 -2.52 -0.42 -2.43 -0.67 -2.18 -0.92 -1.85 -0.59 -0.84 -0.5 -0.76 -0.68 -0.67 -0.67 -0.5 -0.67 -0.42 -0.67 -0.34 -0.76 -0.16 -0.83 -0.09 0 0zm-63.21 -0.25l-0.76 0.08 -0.75 0.17 -0.67 0.34 -0.76 0.42 -0.59 0.5 -0.67 0.67 -0.59 0.76 -0.5 0.84 -0.92 1.84 -0.67 2.19 -0.42 2.43 -0.17 2.52 0.17 2.6 0.42 2.35 0.67 2.18 0.92 1.93 0.5 0.84 0.59 0.68 0.67 0.67 0.59 0.5 0.76 0.5 0.67 0.26 0.75 0.25 0.76 0 0.84 0 0.67 -0.25 0.75 -0.26 0.68 -0.5 0.67 -0.5 0.59 -0.67 0.58 -0.68 0.59 -0.84 0.92 -1.93 0.68 -2.18 0.42 -2.35 0.16 -2.6 -0.16 -2.52 -0.42 -2.43 -0.68 -2.19 -0.92 -1.84 -0.59 -0.84 -0.58 -0.76 -0.59 -0.67 -0.67 -0.5 -0.68 -0.42 -0.75 -0.34 -0.67 -0.17 -0.84 -0.08 0 0zm-52.3 -41.55l1.85 0.08 1.93 0.26 1.85 0.33 1.84 0.42 1.85 0.59 1.85 0.59 1.84 0.75 1.77 0.93 1.76 0.92 1.76 1.01 1.68 1.17 1.68 1.26 1.68 1.34 1.59 1.43 1.52 1.51 1.51 1.51 3.02 3.86 3.61 -4.87 0.08 -0.08 0 0.08 0.5 0.59 0.51 0.67 1.34 1.26 1.68 1.18 2.01 1.17 2.27 1.09 2.52 1.01 2.77 0.93 3.02 0.83 3.19 0.76 3.44 0.76 3.61 0.58 3.78 0.51 4.03 0.42 4.03 0.25 4.19 0.17 4.37 0.08 3.69 -0.08 3.61 -0.09 3.61 -0.25 3.44 -0.25 3.36 -0.42 3.19 -0.42 3.11 -0.5 2.93 -0.59 2.86 -0.67 2.6 -0.76 2.52 -0.75 2.26 -0.84 2.1 -0.84 1.93 -0.93 1.68 -1 1.51 -1.01 0.59 -0.59 2.6 3.69 3.86 -4.78 2.27 -2.18 2.43 -2.1 2.44 -1.85 2.6 -1.68 2.6 -1.51 2.69 -1.26 2.69 -1.09 2.77 -0.84 2.68 -0.58 2.77 -0.42 2.77 -0.17 2.77 0.08 2.69 0.34 2.68 0.5 2.61 0.84 2.6 1.09 1.59 0.84 1.6 0.92 1.51 1.1 1.43 1.09 1.34 1.26 1.34 1.26 2.27 2.85 2.01 3.1 1.77 3.28 1.34 3.61 0.59 1.84 0.42 1.94 0.42 1.93 0.33 2.01 0.17 2.01 0.17 2.02 0.08 2.1 -0.08 2.1 -0.09 2.1 -0.25 2.18 -0.33 2.1 -0.34 2.18 -0.5 2.18 -0.59 2.18 -0.76 2.19 -0.75 2.09 -0.84 2.19 -1.01 2.18 -2.18 4.11 -2.44 3.86 -2.68 3.53 -2.94 3.27 -3.02 2.94 -1.68 1.43 -1.6 1.26 -1.67 1.17 -1.77 1.09 -1.68 1.01 -1.76 0.92 -1.85 0.84 -1.76 0.67 -1.84 0.68 -1.77 0.5 -1.84 0.5 -1.85 0.34 -1.85 0.25 -1.84 0.08 -1.85 0.09 -1.76 -0.09 -1.85 -0.16 -1.76 -0.34 -1.85 -0.42 -1.76 -0.5 -1.68 -0.59 -1.68 -0.76 -2.52 -1.67 -1.84 1.17 -2.52 1.34 -2.69 1.26 -2.77 1.18 -2.85 1.09 -2.94 1.01 -3.11 0.92 -3.19 0.84 -3.19 0.84 -9.4 1.51 1.18 -7.81 0.08 -2.6 0.09 -2.68 -0.09 -2.69 -0.17 -2.69 -0.16 -0.92 -1.6 0 0.25 2.1 0.17 2.6 0.09 2.6 -0.09 2.52 -0.17 2.6 -0.25 2.52 -0.33 2.52 -0.42 2.52 -0.59 2.43 -0.59 2.52 -0.75 2.35 -0.84 2.43 -0.93 2.35 -1 2.36 -1.1 2.26 -1.17 2.18 -1.26 2.19 -1.34 2.18 -1.43 2.1 -3.19 4.03 -3.44 3.77 -3.69 3.53 -4.12 3.19 -4.36 2.94 -2.27 1.34 -2.35 1.26 -2.43 1.17 -2.52 1.01 -2.69 1.09 -2.77 0.93 -2.77 0.75 -2.77 0.67 -2.77 0.51 -2.77 0.42 -2.77 0.33 -2.77 0.09 -2.77 0.08 -2.77 -0.08 -2.77 -0.17 -2.68 -0.34 -2.69 -0.42 -2.69 -0.5 -2.68 -0.67 -2.6 -0.76 -2.61 -0.84 -2.51 -0.92 -2.52 -1.09 -2.44 -1.18 -2.43 -1.26 -2.35 -1.42 -2.27 -1.43 -2.26 -1.6 -2.19 -1.67 -2.1 -1.77 -2.01 -1.84 -2.01 -1.93 -1.85 -2.02 -1.85 -2.18 -1.68 -2.18 -1.68 -2.27 -3.35 -5.54 1.17 -3.02 0.59 -1.01 0.76 -0.92 0.83 -0.84 0.93 -0.92 1.09 -0.76 1.09 -0.76 2.43 -1.34 1.35 -0.5 1.34 -0.42 1.26 -0.25 1.34 -0.26 1.26 -0.08 1.18 0 1.26 0.08 1.09 0.17 2.85 1.18 1.01 1.93 2.18 2.94 2.35 2.6 2.52 2.43 2.77 2.18 2.85 2.02 3.11 1.68 3.1 1.42 3.28 1.18 3.44 0.84 3.44 0.67 3.44 0.25 3.53 0.09 3.61 -0.34 3.52 -0.59 3.53 -0.92 3.52 -1.26 2.86 -1.34 2.77 -1.51 3.36 -2.35 0 -0.09 1.34 -1 1.26 -1.18 1.17 -1.34 1.01 -1.43 1.01 -1.59 0.84 -1.77 0.67 -1.76 0.59 -1.93 0.42 -1.6 0.25 -1.51 0.25 -1.59 0.08 -1.6 -0.16 -2.01 -1.93 -0.08 -5.29 -0.68 -5.12 -0.92 -4.96 -1.09 -4.78 -1.26 -4.53 -1.43 -4.37 -1.59 -4.11 -1.85 -3.86 -1.93 -1.6 -1.01 -2.77 1.68 -1.68 0.84 -1.67 0.67 -1.77 0.59 -1.76 0.42 -1.85 0.34 -1.76 0.25 -1.85 0.17 -1.84 0 -1.77 -0.17 -1.84 -0.17 -1.85 -0.34 -1.76 -0.42 -1.85 -0.5 -1.76 -0.59 -1.76 -0.75 -1.77 -0.76 -1.68 -0.92 -1.67 -1.01 -1.68 -1.09 -1.68 -1.17 -1.6 -1.26 -1.51 -1.35 -3.02 -2.85 -2.77 -3.27 -2.6 -3.53 -2.35 -3.86 -2.02 -4.03 -1.76 -4.36 -0.75 -2.19 -0.68 -2.26 -0.58 -2.19 -0.51 -2.26 -0.33 -2.18 -0.34 -2.19 -0.17 -2.18 -0.08 -2.18 0 -2.18 0.08 -2.1 0.17 -2.1 0.17 -2.1 0.33 -2.01 0.42 -2.02 1.1 -3.78 1.42 -3.69 1.68 -3.44 2.02 -3.11 2.35 -2.93 1.26 -1.35 1.34 -1.26 1.34 -1.09 1.51 -1.09 1.51 -1.01 1.6 -0.92 1.68 -0.76 1.68 -0.67 2.68 -0.84 2.69 -0.58 2.68 -0.26 2.77 -0.08 0 0z"/>
   <polygon class="fil0" points="129.41,46.57 130.08,46.74 130.67,47.24 131.17,48 131.68,48.92 132.01,50.1 132.35,51.44 132.51,52.95 132.6,54.54 151.49,54.54 153.84,54.63 156.1,54.96 158.28,55.38 160.47,55.97 162.57,56.81 164.5,57.73 166.34,58.74 168.11,60 169.78,61.34 171.3,62.77 172.64,64.28 173.9,65.96 174.99,67.72 175.91,69.57 176.58,71.5 177.17,73.51 177.67,77.8 177.51,77.8 177.67,78.38 177.59,79.22 177.42,80.06 177.09,80.82 176.67,81.66 176.08,82.41 175.49,83.17 174.74,83.92 173.81,84.68 172.89,85.43 171.8,86.11 170.62,86.78 169.36,87.45 168.02,88.12 166.59,88.71 165.08,89.3 163.49,89.88 160.05,90.89 156.35,91.81 152.41,92.65 148.21,93.32 143.76,93.91 139.15,94.33 134.36,94.58 129.41,94.67 124.46,94.58 119.67,94.33 115.06,93.91 110.61,93.32 106.41,92.65 102.46,91.81 98.77,90.89 95.33,89.88 93.73,89.3 92.22,88.71 90.8,88.12 89.45,87.45 88.19,86.78 87.02,86.11 85.93,85.43 85.01,84.68 84.08,83.92 83.33,83.17 82.74,82.41 82.15,81.66 81.73,80.82 81.4,80.06 81.23,79.22 81.23,78.38 81.4,77.8 81.23,77.8 81.65,73.51 82.23,71.5 82.99,69.57 83.83,67.72 84.92,65.96 86.18,64.28 87.52,62.77 89.03,61.34 90.71,60 92.48,58.74 94.32,57.73 96.25,56.81 98.35,55.97 100.53,55.38 102.72,54.96 104.98,54.63 107.33,54.54 126.3,54.54 126.3,52.95 126.47,51.44 126.81,50.1 127.23,48.92 127.65,48 128.15,47.24 128.74,46.74 129.41,46.57 "/>
  </g>
 </g>
</svg>
